<?xml version="1.0" encoding="UTF-8" standalone="no"?>
<!-- Created with Fritzing (http://www.fritzing.org/) -->

<svg
   xmlns:dc="http://purl.org/dc/elements/1.1/"
   xmlns:cc="http://creativecommons.org/ns#"
   xmlns:rdf="http://www.w3.org/1999/02/22-rdf-syntax-ns#"
   xmlns:svg="http://www.w3.org/2000/svg"
   xmlns="http://www.w3.org/2000/svg"
   xmlns:sodipodi="http://sodipodi.sourceforge.net/DTD/sodipodi-0.dtd"
   xmlns:inkscape="http://www.inkscape.org/namespaces/inkscape"
   version="1.2"
   x="0in"
   y="0in"
   width="318.89764"
   height="321.11911"
   viewBox="0 0 255.11803 256.895"
   id="svg3565"
   inkscape:version="0.48.3.1 r9886"
   sodipodi:docname="Display128x64_schem.svg">
  <metadata
     id="metadata3765">
    <rdf:RDF>
      <cc:Work
         rdf:about="">
        <dc:format>image/svg+xml</dc:format>
        <dc:type
           rdf:resource="http://purl.org/dc/dcmitype/StillImage" />
        <dc:title></dc:title>
      </cc:Work>
    </rdf:RDF>
  </metadata>
  <defs
     id="defs3763" />
  <sodipodi:namedview
     pagecolor="#ffffff"
     bordercolor="#666666"
     borderopacity="1"
     objecttolerance="10"
     gridtolerance="10"
     guidetolerance="10"
     inkscape:pageopacity="0"
     inkscape:pageshadow="2"
     inkscape:window-width="1855"
     inkscape:window-height="1056"
     id="namedview3761"
     showgrid="false"
     units="mm"
     inkscape:zoom="1.982817"
     inkscape:cx="89.423847"
     inkscape:cy="139.0507"
     inkscape:window-x="65"
     inkscape:window-y="24"
     inkscape:window-maximized="1"
     inkscape:current-layer="svg3565" />
  <path
     id="rect5049"
     d="m 28.3464,230.31999 2.4,0 0,26.575 -2.4,0 0,-26.575 z"
     inkscape:connector-curvature="0" />
  <path
     id="rect5049-7"
     d="m 54.9214,230.31999 2.4,0 0,26.575 -2.4,0 0,-26.575 z"
     inkscape:connector-curvature="0" />
  <path
     id="rect5049-6"
     d="m 81.4964,230.31999 2.4,0 0,26.575 -2.4,0 0,-26.575 z"
     inkscape:connector-curvature="0" />
  <path
     id="rect5049-9"
     d="m 108.0704,230.31999 2.4,0 0,26.575 -2.4,0 0,-26.575 z"
     inkscape:connector-curvature="0" />
  <path
     id="rect5049-3"
     d="m 134.6454,230.31999 2.4,0 0,26.575 -2.4,0 0,-26.575 z"
     inkscape:connector-curvature="0" />
  <path
     id="rect5049-1"
     d="m 161.2204,230.31999 2.4,0 0,26.575 -2.4,0 0,-26.575 z"
     inkscape:connector-curvature="0" />
  <path
     id="rect5049-0"
     d="m 187.7954,230.31999 2.4,0 0,26.575 -2.4,0 0,-26.575 z"
     inkscape:connector-curvature="0" />
  <path
     id="rect5049-08"
     d="m 214.3704,230.31999 2.4,0 0,26.575 -2.4,0 0,-26.575 z"
     inkscape:connector-curvature="0" />
  <path
     id="rect5235"
     d="m 4e-4,-1.1417084e-5 0,1.875000017084 0,226.5630014 0,1.875 0.85171829,0 253.41458171,0 0.85172,0 0,-1.875 0,-226.5630014 0,-1.875000017084 -0.85172,0 -253.41458171,0 -0.85171829,0 0,0 z M 1.6893006,3.7499886 l 251.7256794,0 0,222.8440014 -251.7256794,0 0,-222.8440014 0,0 z"
     inkscape:connector-curvature="0" />
  <path
     id="rect5237"
     d="m 35.4374,37.218989 0,1 0,122.000001 0,1 0.371061,0 181.344709,0 0.38256,0 0,-1 0,-122.000001 0,-1 -0.38256,0 -181.344709,0 -0.371061,0 0,0 z m 0.753625,2.031 180.590705,0 0,119.938001 -180.590705,0 0,-119.938001 0,0 z"
     inkscape:connector-curvature="0" />
  <rect
     width="6.1440001"
     x="211.98801"
     y="231.75595"
     height="24.576"
     id="connector12pin"
     style="fill:none" />
  <rect
     width="6.1440001"
     x="185.388"
     y="231.75595"
     height="24.576"
     id="connector13pin"
     style="fill:none" />
  <rect
     width="6.1440001"
     x="158.78799"
     y="231.75595"
     height="24.576"
     id="connector14pin"
     style="fill:none" />
  <rect
     width="6.1440001"
     x="132.188"
     y="231.75595"
     height="24.576"
     id="connector15pin"
     style="fill:none" />
  <rect
     width="6.1440001"
     x="105.588"
     y="231.75595"
     height="24.576"
     id="connector16pin"
     style="fill:none" />
  <rect
     width="6.1440001"
     x="78.987999"
     y="231.75595"
     height="24.576"
     id="connector17pin"
     style="fill:none" />
  <rect
     width="6.1440001"
     x="52.388"
     y="231.75595"
     height="24.576"
     id="connector18pin"
     style="fill:none" />
  <rect
     width="6.1440001"
     x="25.788"
     y="231.75595"
     height="24.576"
     id="connector19pin"
     style="fill:none" />
  <g
     points="211.988,256.332,218.132,256.332,218.132,256.332"
     id="connector12terminal"
     style="fill:none"
     transform="translate(0,-1.1417084e-5)" />
  <g
     points="185.388,256.332,191.532,256.332,191.532,256.332"
     id="connector13terminal"
     style="fill:none"
     transform="translate(0,-1.1417084e-5)" />
  <g
     points="158.788,256.332,164.932,256.332,164.932,256.332"
     id="connector14terminal"
     style="fill:none"
     transform="translate(0,-1.1417084e-5)" />
  <g
     points="132.188,256.332,138.332,256.332,138.332,256.332"
     id="connector15terminal"
     style="fill:none"
     transform="translate(0,-1.1417084e-5)" />
  <g
     points="105.588,256.332,111.732,256.332,111.732,256.332"
     id="connector16terminal"
     style="fill:none"
     transform="translate(0,-1.1417084e-5)" />
  <g
     points="78.988,256.332,85.132,256.332,85.132,256.332"
     id="connector17terminal"
     style="fill:none"
     transform="translate(0,-1.1417084e-5)" />
  <g
     points="52.388,256.332,58.532,256.332,58.532,256.332"
     id="connector18terminal"
     style="fill:none"
     transform="translate(0,-1.1417084e-5)" />
  <g
     points="25.788,256.332,31.932,256.332,31.932,256.332"
     id="connector19terminal"
     style="fill:none"
     transform="translate(0,-1.1417084e-5)" />
  <text
     xml:space="preserve"
     style="font-size:31.99998856px;font-style:normal;font-variant:normal;font-weight:normal;font-stretch:normal;line-height:125%;letter-spacing:0px;word-spacing:0px;fill:#000000;fill-opacity:1;stroke:none;font-family:OpenSymbol;-inkscape-font-specification:OpenSymbol"
     x="68.992729"
     y="105.59525"
     id="text4193"
     sodipodi:linespacing="125%"><tspan
       sodipodi:role="line"
       id="tspan4195"
       x="68.992729"
       y="105.59525"
       style="font-size:17.59999466px;font-style:normal;font-variant:normal;font-weight:normal;font-stretch:normal;font-family:Droid Sans;-inkscape-font-specification:Droid Sans">84 x 48 GLCD</tspan></text>
  <text
     xml:space="preserve"
     style="font-size:9.59999657px;font-style:normal;font-variant:normal;font-weight:normal;font-stretch:normal;line-height:125%;letter-spacing:0px;word-spacing:0px;fill:#000000;fill-opacity:1;stroke:none;font-family:OpenSymbol;-inkscape-font-specification:OpenSymbol"
     x="-219.13499"
     y="32.478825"
     id="text4257"
     sodipodi:linespacing="125%"
     transform="matrix(0,-1,1,0,0,0)"><tspan
       sodipodi:role="line"
       id="tspan4259"
       x="-219.13499"
       y="32.478825"
       style="font-size:9.59999657px;font-style:normal;font-variant:normal;font-weight:normal;font-stretch:normal;font-family:Droid Sans;-inkscape-font-specification:Droid Sans">1 RST</tspan></text>
  <text
     xml:space="preserve"
     style="font-size:9.59999657px;font-style:normal;font-variant:normal;font-weight:normal;font-stretch:normal;line-height:125%;letter-spacing:0px;word-spacing:0px;fill:#000000;fill-opacity:1;stroke:none;font-family:OpenSymbol;-inkscape-font-specification:OpenSymbol"
     x="-218.34894"
     y="59.308979"
     id="text4257-9"
     sodipodi:linespacing="125%"
     transform="matrix(0,-1,1,0,0,0)"><tspan
       sodipodi:role="line"
       id="tspan4259-2"
       x="-218.34894"
       y="59.308979"
       style="font-size:9.59999657px;font-style:normal;font-variant:normal;font-weight:normal;font-stretch:normal;font-family:Droid Sans;-inkscape-font-specification:Droid Sans">2 CE</tspan></text>
  <text
     transform="matrix(0,-1,1,0,0,0)"
     sodipodi:linespacing="125%"
     id="text4282"
     y="84.908958"
     x="-218.34894"
     style="font-size:9.59999657px;font-style:normal;font-variant:normal;font-weight:normal;font-stretch:normal;line-height:125%;letter-spacing:0px;word-spacing:0px;fill:#000000;fill-opacity:1;stroke:none;font-family:OpenSymbol;-inkscape-font-specification:OpenSymbol"
     xml:space="preserve"><tspan
       style="font-size:9.59999657px;font-style:normal;font-variant:normal;font-weight:normal;font-stretch:normal;font-family:Droid Sans;-inkscape-font-specification:Droid Sans"
       y="84.908958"
       x="-218.34894"
       sodipodi:role="line"
       id="tspan4286">3 DC</tspan></text>
  <text
     xml:space="preserve"
     style="font-size:9.59999657px;font-style:normal;font-variant:normal;font-weight:normal;font-stretch:normal;line-height:125%;letter-spacing:0px;word-spacing:0px;fill:#000000;fill-opacity:1;stroke:none;font-family:OpenSymbol;-inkscape-font-specification:OpenSymbol"
     x="-218.34894"
     y="112.10894"
     id="text4290"
     sodipodi:linespacing="125%"
     transform="matrix(0,-1,1,0,0,0)"><tspan
       id="tspan4292"
       sodipodi:role="line"
       x="-218.34894"
       y="112.10894"
       style="font-size:9.59999657px;font-style:normal;font-variant:normal;font-weight:normal;font-stretch:normal;font-family:Droid Sans;-inkscape-font-specification:Droid Sans">4 DIN</tspan></text>
  <text
     transform="matrix(0,-1,1,0,0,0)"
     sodipodi:linespacing="125%"
     id="text4294"
     y="137.70898"
     x="-218.34894"
     style="font-size:9.59999657px;font-style:normal;font-variant:normal;font-weight:normal;font-stretch:normal;line-height:125%;letter-spacing:0px;word-spacing:0px;fill:#000000;fill-opacity:1;stroke:none;font-family:OpenSymbol;-inkscape-font-specification:OpenSymbol"
     xml:space="preserve"><tspan
       style="font-size:9.59999657px;font-style:normal;font-variant:normal;font-weight:normal;font-stretch:normal;font-family:Droid Sans;-inkscape-font-specification:Droid Sans"
       y="137.70898"
       x="-218.34894"
       sodipodi:role="line"
       id="tspan4296">5 CLK</tspan></text>
  <text
     xml:space="preserve"
     style="font-size:9.59999657px;font-style:normal;font-variant:normal;font-weight:normal;font-stretch:normal;line-height:125%;letter-spacing:0px;word-spacing:0px;fill:#000000;fill-opacity:1;stroke:none;font-family:OpenSymbol;-inkscape-font-specification:OpenSymbol"
     x="-218.34894"
     y="164.90909"
     id="text4298"
     sodipodi:linespacing="125%"
     transform="matrix(0,-1,1,0,0,0)"><tspan
       id="tspan4300"
       sodipodi:role="line"
       x="-218.34894"
       y="164.90909"
       style="font-size:9.59999657px;font-style:normal;font-variant:normal;font-weight:normal;font-stretch:normal;font-family:Droid Sans;-inkscape-font-specification:Droid Sans">6 VCC</tspan></text>
  <text
     transform="matrix(0,-1,1,0,0,0)"
     sodipodi:linespacing="125%"
     id="text4302"
     y="192.10919"
     x="-218.34894"
     style="font-size:9.59999657px;font-style:normal;font-variant:normal;font-weight:normal;font-stretch:normal;line-height:125%;letter-spacing:0px;word-spacing:0px;fill:#000000;fill-opacity:1;stroke:none;font-family:OpenSymbol;-inkscape-font-specification:OpenSymbol"
     xml:space="preserve"><tspan
       style="font-size:9.59999657px;font-style:normal;font-variant:normal;font-weight:normal;font-stretch:normal;font-family:Droid Sans;-inkscape-font-specification:Droid Sans"
       y="192.10919"
       x="-218.34894"
       sodipodi:role="line"
       id="tspan4304">7 LIGHT</tspan></text>
  <text
     xml:space="preserve"
     style="font-size:9.59999657px;font-style:normal;font-variant:normal;font-weight:normal;font-stretch:normal;line-height:125%;letter-spacing:0px;word-spacing:0px;fill:#000000;fill-opacity:1;stroke:none;font-family:OpenSymbol;-inkscape-font-specification:OpenSymbol"
     x="-218.34894"
     y="217.70929"
     id="text4306"
     sodipodi:linespacing="125%"
     transform="matrix(0,-1,1,0,0,0)"><tspan
       id="tspan4308"
       sodipodi:role="line"
       x="-218.34894"
       y="217.70929"
       style="font-size:9.59999657px;font-style:normal;font-variant:normal;font-weight:normal;font-stretch:normal;font-family:Droid Sans;-inkscape-font-specification:Droid Sans">8 GND</tspan></text>
</svg>
