<?xml version='1.0' encoding='UTF-8' standalone='no'?>
<!-- Created with Fritzing (http://www.fritzing.org/) -->
<svg xmlns:svg='http://www.w3.org/2000/svg' xmlns='http://www.w3.org/2000/svg' version='1.2' baseProfile='tiny' x='0in' y='0in' width='3.66142in' height='2.75591in' viewBox='0 0 263.622 198.425' >
<g partID='20510'><g  id="copper0">
 <g  id="copper1">
  <g transform="matrix(0, 1, -1, 0, 65.605, 165.419)">
   <circle  fill="none" cx="25.92" cy="25.92" stroke="#ffbf00" r="1.584" id="connector19pin" stroke-width="1.152" d="m 27.504,25.92 c 0,0.874819 -0.709181,1.584 -1.584,1.584 -0.874819,0 -1.584,-0.709181 -1.584,-1.584 0,-0.874819 0.709181,-1.584 1.584,-1.584 0.874819,0 1.584,0.709181 1.584,1.584 z"/>
  </g>
  <g transform="matrix(0, 1, -1, 0, 65.605, 165.419)">
   <circle  fill="none" cx="25.92" cy="18.72" stroke="#ffbf00" r="1.584" id="connector18pin" stroke-width="1.152" d="m 27.504,18.719999 c 0,0.874819 -0.709181,1.584 -1.584,1.584 -0.874819,0 -1.584,-0.709181 -1.584,-1.584 0,-0.874819 0.709181,-1.584 1.584,-1.584 0.874819,0 1.584,0.709181 1.584,1.584 z"/>
  </g>
  <g transform="matrix(0, 1, -1, 0, 65.605, 165.419)">
   <circle  fill="none" cx="25.92" cy="11.52" stroke="#ffbf00" r="1.584" id="connector17pin" stroke-width="1.152" d="m 27.504,11.52 c 0,0.874819 -0.709181,1.584 -1.584,1.584 -0.874819,0 -1.584,-0.709181 -1.584,-1.584 0,-0.874819 0.709181,-1.5839995 1.584,-1.5839995 0.874819,0 1.584,0.7091805 1.584,1.5839995 z"/>
  </g>
  <g transform="matrix(0, 1, -1, 0, 65.605, 165.419)">
   <circle  fill="none" cx="25.92" cy="4.32" stroke="#ffbf00" r="1.584" id="connector16pin" stroke-width="1.152" d="m 27.504,4.3200002 c 0,0.874819 -0.709181,1.584 -1.584,1.584 -0.874819,0 -1.584,-0.709181 -1.584,-1.584 0,-0.8748191 0.709181,-1.584 1.584,-1.584 0.874819,0 1.584,0.7091809 1.584,1.584 z"/>
  </g>
  <g transform="matrix(0, 1, -1, 0, 94.405, 187.019)">
   <circle  fill="none" cx="4.32" cy="4.32" stroke="#ffbf00" id="connector12pin" r="1.584" stroke-width="1.152" d="m 5.9040002,4.3200002 c 0,0.874819 -0.709181,1.584 -1.584,1.584 -0.8748191,0 -1.584,-0.709181 -1.584,-1.584 0,-0.8748191 0.7091809,-1.584 1.584,-1.584 0.874819,0 1.584,0.7091809 1.584,1.584 z"/>
  </g>
  <g transform="matrix(0, 1, -1, 0, 94.405, 187.019)">
   <circle  fill="none" cx="4.32" cy="11.52" stroke="#ffbf00" id="connector13pin" r="1.584" stroke-width="1.152" d="m 5.9040002,11.52 c 0,0.874819 -0.709181,1.584 -1.584,1.584 -0.8748191,0 -1.584,-0.709181 -1.584,-1.584 0,-0.874819 0.7091809,-1.5839995 1.584,-1.5839995 0.874819,0 1.584,0.7091805 1.584,1.5839995 z"/>
  </g>
  <g transform="matrix(0, 1, -1, 0, 94.405, 187.019)">
   <circle  fill="none" cx="4.32" cy="18.72" stroke="#ffbf00" id="connector14pin" r="1.584" stroke-width="1.152" d="m 5.9040002,18.719999 c 0,0.874819 -0.709181,1.584 -1.584,1.584 -0.8748191,0 -1.584,-0.709181 -1.584,-1.584 0,-0.874819 0.7091809,-1.584 1.584,-1.584 0.874819,0 1.584,0.709181 1.584,1.584 z"/>
  </g>
  <g transform="matrix(0, 1, -1, 0, 94.405, 187.019)">
   <circle  fill="none" cx="4.32" cy="25.92" stroke="#ffbf00" id="connector15pin" r="1.584" stroke-width="1.152" d="m 5.9040002,25.92 c 0,0.874819 -0.709181,1.584 -1.584,1.584 -0.8748191,0 -1.584,-0.709181 -1.584,-1.584 0,-0.874819 0.7091809,-1.584 1.584,-1.584 0.874819,0 1.584,0.709181 1.584,1.584 z"/>
  </g>
  <g transform="matrix(0,1,-1,0,0,0)">
   <rect  width="3.168" x="189.755" y="-178.069" fill="none" height="3.168" stroke="#ffbf00" id="rect17" stroke-width="1.152"/>
  </g>
  <g transform="matrix(0, 1, -1, 0, 123.205, 165.419)">
   <circle  fill="none" cx="25.92" cy="25.92" stroke="#ffbf00" r="1.584" id="connector11pin" stroke-width="1.152" d="m 27.504,25.92 c 0,0.874819 -0.709181,1.584 -1.584,1.584 -0.874819,0 -1.584,-0.709181 -1.584,-1.584 0,-0.874819 0.709181,-1.584 1.584,-1.584 0.874819,0 1.584,0.709181 1.584,1.584 z"/>
  </g>
  <g transform="matrix(0, 1, -1, 0, 123.205, 165.419)">
   <circle  fill="none" cx="25.92" cy="18.72" stroke="#ffbf00" r="1.584" id="connector10pin" stroke-width="1.152" d="m 27.504,18.719999 c 0,0.874819 -0.709181,1.584 -1.584,1.584 -0.874819,0 -1.584,-0.709181 -1.584,-1.584 0,-0.874819 0.709181,-1.584 1.584,-1.584 0.874819,0 1.584,0.709181 1.584,1.584 z"/>
  </g>
  <g transform="matrix(0, 1, -1, 0, 123.205, 165.419)">
   <circle  fill="none" cx="25.92" cy="11.52" stroke="#ffbf00" r="1.584" id="connector9pin" stroke-width="1.152" d="m 27.504,11.52 c 0,0.874819 -0.709181,1.584 -1.584,1.584 -0.874819,0 -1.584,-0.709181 -1.584,-1.584 0,-0.874819 0.709181,-1.5839995 1.584,-1.5839995 0.874819,0 1.584,0.7091805 1.584,1.5839995 z"/>
  </g>
  <g transform="matrix(0, 1, -1, 0, 123.205, 165.419)">
   <circle  fill="none" cx="25.92" cy="4.32" stroke="#ffbf00" r="1.584" id="connector8pin" stroke-width="1.152" d="m 27.504,4.3200002 c 0,0.874819 -0.709181,1.584 -1.584,1.584 -0.874819,0 -1.584,-0.709181 -1.584,-1.584 0,-0.8748191 0.709181,-1.584 1.584,-1.584 0.874819,0 1.584,0.7091809 1.584,1.584 z"/>
  </g>
  <g transform="matrix(0, 1, -1, 0, 152.005, 187.019)">
   <circle  fill="none" cx="4.32" cy="4.32" stroke="#ffbf00" id="connector4pin" r="1.584" stroke-width="1.152" d="m 5.9040002,4.3200002 c 0,0.874819 -0.709181,1.584 -1.584,1.584 -0.8748191,0 -1.584,-0.709181 -1.584,-1.584 0,-0.8748191 0.7091809,-1.584 1.584,-1.584 0.874819,0 1.584,0.7091809 1.584,1.584 z"/>
  </g>
  <g transform="matrix(0, 1, -1, 0, 152.005, 187.019)">
   <circle  fill="none" cx="4.32" cy="11.52" stroke="#ffbf00" id="connector5pin" r="1.584" stroke-width="1.152" d="m 5.9040002,11.52 c 0,0.874819 -0.709181,1.584 -1.584,1.584 -0.8748191,0 -1.584,-0.709181 -1.584,-1.584 0,-0.874819 0.7091809,-1.5839995 1.584,-1.5839995 0.874819,0 1.584,0.7091805 1.584,1.5839995 z"/>
  </g>
  <g transform="matrix(0, 1, -1, 0, 152.005, 187.019)">
   <circle  fill="none" cx="4.32" cy="18.72" stroke="#ffbf00" id="connector6pin" r="1.584" stroke-width="1.152" d="m 5.9040002,18.719999 c 0,0.874819 -0.709181,1.584 -1.584,1.584 -0.8748191,0 -1.584,-0.709181 -1.584,-1.584 0,-0.874819 0.7091809,-1.584 1.584,-1.584 0.874819,0 1.584,0.709181 1.584,1.584 z"/>
  </g>
  <g transform="matrix(0, 1, -1, 0, 152.005, 187.019)">
   <circle  fill="none" cx="4.32" cy="25.92" stroke="#ffbf00" id="connector7pin" r="1.584" stroke-width="1.152" d="m 5.9040002,25.92 c 0,0.874819 -0.709181,1.584 -1.584,1.584 -0.8748191,0 -1.584,-0.709181 -1.584,-1.584 0,-0.874819 0.7091809,-1.584 1.584,-1.584 0.874819,0 1.584,0.709181 1.584,1.584 z"/>
  </g>
  <g transform="matrix(0, 1, -1, 0, 180.805, 165.419)">
   <circle  fill="none" cx="25.92" cy="25.92" stroke="#ffbf00" r="1.584" id="connector3pin" stroke-width="1.152" d="m 27.504,25.92 c 0,0.874819 -0.709181,1.584 -1.584,1.584 -0.874819,0 -1.584,-0.709181 -1.584,-1.584 0,-0.874819 0.709181,-1.584 1.584,-1.584 0.874819,0 1.584,0.709181 1.584,1.584 z"/>
  </g>
  <g transform="matrix(0, 1, -1, 0, 180.805, 165.419)">
   <circle  fill="none" cx="25.92" cy="18.72" stroke="#ffbf00" r="1.584" id="connector2pin" stroke-width="1.152" d="m 27.504,18.719999 c 0,0.874819 -0.709181,1.584 -1.584,1.584 -0.874819,0 -1.584,-0.709181 -1.584,-1.584 0,-0.874819 0.709181,-1.584 1.584,-1.584 0.874819,0 1.584,0.709181 1.584,1.584 z"/>
  </g>
  <g transform="matrix(0, 1, -1, 0, 180.805, 165.419)">
   <circle  fill="none" cx="25.92" cy="11.52" stroke="#ffbf00" r="1.584" id="connector1pin" stroke-width="1.152" d="m 27.504,11.52 c 0,0.874819 -0.709181,1.584 -1.584,1.584 -0.874819,0 -1.584,-0.709181 -1.584,-1.584 0,-0.874819 0.709181,-1.5839995 1.584,-1.5839995 0.874819,0 1.584,0.7091805 1.584,1.5839995 z"/>
  </g>
  <g transform="matrix(0, 1, -1, 0, 180.805, 165.419)">
   <circle  fill="none" cx="25.92" cy="4.32" stroke="#ffbf00" r="1.584" id="connector0pin" stroke-width="1.152" d="m 27.504,4.3200002 c 0,0.874819 -0.709181,1.584 -1.584,1.584 -0.874819,0 -1.584,-0.709181 -1.584,-1.584 0,-0.8748191 0.709181,-1.584 1.584,-1.584 0.874819,0 1.584,0.7091809 1.584,1.584 z"/>
  </g>
 </g>
</g>
</g><g partID='20511'><g  id="copper1">
 <g transform="matrix(0, 1, -1, 0, 65.605, 165.419)">
  <circle  fill="none" cx="25.92" cy="25.92" stroke="#ffbf00" r="1.584" id="connector19pin" stroke-width="1.152" d="m 27.504,25.92 c 0,0.874819 -0.709181,1.584 -1.584,1.584 -0.874819,0 -1.584,-0.709181 -1.584,-1.584 0,-0.874819 0.709181,-1.584 1.584,-1.584 0.874819,0 1.584,0.709181 1.584,1.584 z"/>
 </g>
 <g transform="matrix(0, 1, -1, 0, 65.605, 165.419)">
  <circle  fill="none" cx="25.92" cy="18.72" stroke="#ffbf00" r="1.584" id="connector18pin" stroke-width="1.152" d="m 27.504,18.719999 c 0,0.874819 -0.709181,1.584 -1.584,1.584 -0.874819,0 -1.584,-0.709181 -1.584,-1.584 0,-0.874819 0.709181,-1.584 1.584,-1.584 0.874819,0 1.584,0.709181 1.584,1.584 z"/>
 </g>
 <g transform="matrix(0, 1, -1, 0, 65.605, 165.419)">
  <circle  fill="none" cx="25.92" cy="11.52" stroke="#ffbf00" r="1.584" id="connector17pin" stroke-width="1.152" d="m 27.504,11.52 c 0,0.874819 -0.709181,1.584 -1.584,1.584 -0.874819,0 -1.584,-0.709181 -1.584,-1.584 0,-0.874819 0.709181,-1.5839995 1.584,-1.5839995 0.874819,0 1.584,0.7091805 1.584,1.5839995 z"/>
 </g>
 <g transform="matrix(0, 1, -1, 0, 65.605, 165.419)">
  <circle  fill="none" cx="25.92" cy="4.32" stroke="#ffbf00" r="1.584" id="connector16pin" stroke-width="1.152" d="m 27.504,4.3200002 c 0,0.874819 -0.709181,1.584 -1.584,1.584 -0.874819,0 -1.584,-0.709181 -1.584,-1.584 0,-0.8748191 0.709181,-1.584 1.584,-1.584 0.874819,0 1.584,0.7091809 1.584,1.584 z"/>
 </g>
 <g transform="matrix(0, 1, -1, 0, 94.405, 187.019)">
  <circle  fill="none" cx="4.32" cy="4.32" stroke="#ffbf00" id="connector12pin" r="1.584" stroke-width="1.152" d="m 5.9040002,4.3200002 c 0,0.874819 -0.709181,1.584 -1.584,1.584 -0.8748191,0 -1.584,-0.709181 -1.584,-1.584 0,-0.8748191 0.7091809,-1.584 1.584,-1.584 0.874819,0 1.584,0.7091809 1.584,1.584 z"/>
 </g>
 <g transform="matrix(0, 1, -1, 0, 94.405, 187.019)">
  <circle  fill="none" cx="4.32" cy="11.52" stroke="#ffbf00" id="connector13pin" r="1.584" stroke-width="1.152" d="m 5.9040002,11.52 c 0,0.874819 -0.709181,1.584 -1.584,1.584 -0.8748191,0 -1.584,-0.709181 -1.584,-1.584 0,-0.874819 0.7091809,-1.5839995 1.584,-1.5839995 0.874819,0 1.584,0.7091805 1.584,1.5839995 z"/>
 </g>
 <g transform="matrix(0, 1, -1, 0, 94.405, 187.019)">
  <circle  fill="none" cx="4.32" cy="18.72" stroke="#ffbf00" id="connector14pin" r="1.584" stroke-width="1.152" d="m 5.9040002,18.719999 c 0,0.874819 -0.709181,1.584 -1.584,1.584 -0.8748191,0 -1.584,-0.709181 -1.584,-1.584 0,-0.874819 0.7091809,-1.584 1.584,-1.584 0.874819,0 1.584,0.709181 1.584,1.584 z"/>
 </g>
 <g transform="matrix(0, 1, -1, 0, 94.405, 187.019)">
  <circle  fill="none" cx="4.32" cy="25.92" stroke="#ffbf00" id="connector15pin" r="1.584" stroke-width="1.152" d="m 5.9040002,25.92 c 0,0.874819 -0.709181,1.584 -1.584,1.584 -0.8748191,0 -1.584,-0.709181 -1.584,-1.584 0,-0.874819 0.7091809,-1.584 1.584,-1.584 0.874819,0 1.584,0.709181 1.584,1.584 z"/>
 </g>
 <g transform="matrix(0,1,-1,0,0,0)">
  <rect  width="3.168" x="189.755" y="-178.069" fill="none" height="3.168" stroke="#ffbf00" id="rect17" stroke-width="1.152"/>
 </g>
 <g transform="matrix(0, 1, -1, 0, 123.205, 165.419)">
  <circle  fill="none" cx="25.92" cy="25.92" stroke="#ffbf00" r="1.584" id="connector11pin" stroke-width="1.152" d="m 27.504,25.92 c 0,0.874819 -0.709181,1.584 -1.584,1.584 -0.874819,0 -1.584,-0.709181 -1.584,-1.584 0,-0.874819 0.709181,-1.584 1.584,-1.584 0.874819,0 1.584,0.709181 1.584,1.584 z"/>
 </g>
 <g transform="matrix(0, 1, -1, 0, 123.205, 165.419)">
  <circle  fill="none" cx="25.92" cy="18.72" stroke="#ffbf00" r="1.584" id="connector10pin" stroke-width="1.152" d="m 27.504,18.719999 c 0,0.874819 -0.709181,1.584 -1.584,1.584 -0.874819,0 -1.584,-0.709181 -1.584,-1.584 0,-0.874819 0.709181,-1.584 1.584,-1.584 0.874819,0 1.584,0.709181 1.584,1.584 z"/>
 </g>
 <g transform="matrix(0, 1, -1, 0, 123.205, 165.419)">
  <circle  fill="none" cx="25.92" cy="11.52" stroke="#ffbf00" r="1.584" id="connector9pin" stroke-width="1.152" d="m 27.504,11.52 c 0,0.874819 -0.709181,1.584 -1.584,1.584 -0.874819,0 -1.584,-0.709181 -1.584,-1.584 0,-0.874819 0.709181,-1.5839995 1.584,-1.5839995 0.874819,0 1.584,0.7091805 1.584,1.5839995 z"/>
 </g>
 <g transform="matrix(0, 1, -1, 0, 123.205, 165.419)">
  <circle  fill="none" cx="25.92" cy="4.32" stroke="#ffbf00" r="1.584" id="connector8pin" stroke-width="1.152" d="m 27.504,4.3200002 c 0,0.874819 -0.709181,1.584 -1.584,1.584 -0.874819,0 -1.584,-0.709181 -1.584,-1.584 0,-0.8748191 0.709181,-1.584 1.584,-1.584 0.874819,0 1.584,0.7091809 1.584,1.584 z"/>
 </g>
 <g transform="matrix(0, 1, -1, 0, 152.005, 187.019)">
  <circle  fill="none" cx="4.32" cy="4.32" stroke="#ffbf00" id="connector4pin" r="1.584" stroke-width="1.152" d="m 5.9040002,4.3200002 c 0,0.874819 -0.709181,1.584 -1.584,1.584 -0.8748191,0 -1.584,-0.709181 -1.584,-1.584 0,-0.8748191 0.7091809,-1.584 1.584,-1.584 0.874819,0 1.584,0.7091809 1.584,1.584 z"/>
 </g>
 <g transform="matrix(0, 1, -1, 0, 152.005, 187.019)">
  <circle  fill="none" cx="4.32" cy="11.52" stroke="#ffbf00" id="connector5pin" r="1.584" stroke-width="1.152" d="m 5.9040002,11.52 c 0,0.874819 -0.709181,1.584 -1.584,1.584 -0.8748191,0 -1.584,-0.709181 -1.584,-1.584 0,-0.874819 0.7091809,-1.5839995 1.584,-1.5839995 0.874819,0 1.584,0.7091805 1.584,1.5839995 z"/>
 </g>
 <g transform="matrix(0, 1, -1, 0, 152.005, 187.019)">
  <circle  fill="none" cx="4.32" cy="18.72" stroke="#ffbf00" id="connector6pin" r="1.584" stroke-width="1.152" d="m 5.9040002,18.719999 c 0,0.874819 -0.709181,1.584 -1.584,1.584 -0.8748191,0 -1.584,-0.709181 -1.584,-1.584 0,-0.874819 0.7091809,-1.584 1.584,-1.584 0.874819,0 1.584,0.709181 1.584,1.584 z"/>
 </g>
 <g transform="matrix(0, 1, -1, 0, 152.005, 187.019)">
  <circle  fill="none" cx="4.32" cy="25.92" stroke="#ffbf00" id="connector7pin" r="1.584" stroke-width="1.152" d="m 5.9040002,25.92 c 0,0.874819 -0.709181,1.584 -1.584,1.584 -0.8748191,0 -1.584,-0.709181 -1.584,-1.584 0,-0.874819 0.7091809,-1.584 1.584,-1.584 0.874819,0 1.584,0.709181 1.584,1.584 z"/>
 </g>
 <g transform="matrix(0, 1, -1, 0, 180.805, 165.419)">
  <circle  fill="none" cx="25.92" cy="25.92" stroke="#ffbf00" r="1.584" id="connector3pin" stroke-width="1.152" d="m 27.504,25.92 c 0,0.874819 -0.709181,1.584 -1.584,1.584 -0.874819,0 -1.584,-0.709181 -1.584,-1.584 0,-0.874819 0.709181,-1.584 1.584,-1.584 0.874819,0 1.584,0.709181 1.584,1.584 z"/>
 </g>
 <g transform="matrix(0, 1, -1, 0, 180.805, 165.419)">
  <circle  fill="none" cx="25.92" cy="18.72" stroke="#ffbf00" r="1.584" id="connector2pin" stroke-width="1.152" d="m 27.504,18.719999 c 0,0.874819 -0.709181,1.584 -1.584,1.584 -0.874819,0 -1.584,-0.709181 -1.584,-1.584 0,-0.874819 0.709181,-1.584 1.584,-1.584 0.874819,0 1.584,0.709181 1.584,1.584 z"/>
 </g>
 <g transform="matrix(0, 1, -1, 0, 180.805, 165.419)">
  <circle  fill="none" cx="25.92" cy="11.52" stroke="#ffbf00" r="1.584" id="connector1pin" stroke-width="1.152" d="m 27.504,11.52 c 0,0.874819 -0.709181,1.584 -1.584,1.584 -0.874819,0 -1.584,-0.709181 -1.584,-1.584 0,-0.874819 0.709181,-1.5839995 1.584,-1.5839995 0.874819,0 1.584,0.7091805 1.584,1.5839995 z"/>
 </g>
 <g transform="matrix(0, 1, -1, 0, 180.805, 165.419)">
  <circle  fill="none" cx="25.92" cy="4.32" stroke="#ffbf00" r="1.584" id="connector0pin" stroke-width="1.152" d="m 27.504,4.3200002 c 0,0.874819 -0.709181,1.584 -1.584,1.584 -0.874819,0 -1.584,-0.709181 -1.584,-1.584 0,-0.8748191 0.709181,-1.584 1.584,-1.584 0.874819,0 1.584,0.7091809 1.584,1.584 z"/>
 </g>
</g>
</g><g partID='20512'><g xmlns="http://www.w3.org/2000/svg" id="silkscreen">
 <rect xmlns="http://www.w3.org/2000/svg" width="261.973" x="0.824335" y="0.824336" stroke-opacity="1" fill="none" height="196.777" stroke="#ffffff" style="color:#000000;stroke-miterlimit:4;stroke-dasharray:19.78405724, 1.64867144;stroke-dashoffset:16.48671436;marker:none;visibility:visible;display:inline;overflow:visible;enable-background:accumulate" id="rect2882" stroke-width="1"/>
</g>
</g></svg>