<?xml version="1.0" encoding="UTF-8" standalone="no"?>
<!-- Created with Fritzing (http://www.fritzing.org/) -->

<svg
   xmlns:dc="http://purl.org/dc/elements/1.1/"
   xmlns:cc="http://creativecommons.org/ns#"
   xmlns:rdf="http://www.w3.org/1999/02/22-rdf-syntax-ns#"
   xmlns:svg="http://www.w3.org/2000/svg"
   xmlns="http://www.w3.org/2000/svg"
   xmlns:sodipodi="http://sodipodi.sourceforge.net/DTD/sodipodi-0.dtd"
   xmlns:inkscape="http://www.inkscape.org/namespaces/inkscape"
   version="1.2"
   x="0in"
   y="0in"
   width="154.13385"
   height="152.3622"
   viewBox="0 0 123.30697 121.88944"
   id="svg2"
   inkscape:version="0.48.3.1 r9886"
   sodipodi:docname="Display84x48.svg">
  <metadata
     id="metadata228">
    <rdf:RDF>
      <cc:Work
         rdf:about="">
        <dc:format>image/svg+xml</dc:format>
        <dc:type
           rdf:resource="http://purl.org/dc/dcmitype/StillImage" />
      </cc:Work>
    </rdf:RDF>
  </metadata>
  <defs
     id="defs226" />
  <sodipodi:namedview
     pagecolor="#ffffff"
     bordercolor="#666666"
     borderopacity="1"
     objecttolerance="10"
     gridtolerance="10"
     guidetolerance="10"
     inkscape:pageopacity="0"
     inkscape:pageshadow="2"
     inkscape:window-width="1855"
     inkscape:window-height="1056"
     id="namedview224"
     showgrid="false"
     units="mm"
     inkscape:zoom="2.6912217"
     inkscape:cx="132.04585"
     inkscape:cy="44.015624"
     inkscape:window-x="65"
     inkscape:window-y="24"
     inkscape:window-maximized="1"
     inkscape:current-layer="svg2" />
  <path
     style="font-size:4.00002002999999995px;fill:#c83737;fill-opacity:1;stroke:#000000;stroke-width:0.43438125000000000;stroke-miterlimit:4;stroke-opacity:1;display:inline"
     id="rect3008"
     d="m 0.21719064,0.21570143 124.28991936,0 0,121.45527857 -124.28991936,0 0,-121.45527857 z"
     font-size="4.00002003px"
     inkscape:connector-curvature="0" />
  <rect
     style="fill:#d2d2d2;fill-opacity:1;stroke:none"
     id="rect3789"
     width="111.96841"
     height="94.960548"
     x="6.3779469"
     y="10.097086" />
  <g
     id="g3975"
     transform="translate(-2.4003196,2.1282378)">
    <path
       inkscape:connector-curvature="0"
       d="m 11.261444,114.80266 c 0,2.30569 -1.869131,4.17482 -4.1748094,4.17482 -2.3056885,0 -4.1748092,-1.86913 -4.1748092,-4.17482 0,-2.30568 1.8691307,-4.1748 4.1748092,-4.1748 2.3056884,0 4.1748094,1.86912 4.1748094,4.1748 z"
       id="path3786-6-0-1-4-47"
       style="fill:#faf7f4;fill-opacity:1;stroke:#ffc928;stroke-width:0.72125536;stroke-miterlimit:4;stroke-opacity:1;stroke-dasharray:none;display:inline" />
    <path
       inkscape:connector-curvature="0"
       d="m 10.155349,114.80266 c 0,1.69483 -1.3739229,3.06875 -3.0687544,3.06875 -1.6948216,0 -3.0687547,-1.37392 -3.0687547,-3.06875 0,-1.69482 1.3739231,-3.06875 3.0687547,-3.06875 1.6948215,0 3.0687544,1.37393 3.0687544,3.06875 z"
       id="path6213-6-6-1"
       style="fill:#80bf40;fill-opacity:0.15686275;stroke:#0e100d;stroke-width:0.94911122;stroke-miterlimit:4;stroke-opacity:1;stroke-dasharray:none;display:inline" />
  </g>
  <g
     id="g3979"
     transform="translate(-2.4003196,74.750956)">
    <path
       inkscape:connector-curvature="0"
       d="m 11.261444,-69.449319 c 0,2.30569 -1.869131,4.17482 -4.1748094,4.17482 -2.3056885,0 -4.1748092,-1.86913 -4.1748092,-4.17482 0,-2.30568 1.8691307,-4.1748 4.1748092,-4.1748 2.3056884,0 4.1748094,1.86912 4.1748094,4.1748 z"
       id="path3786-6-0-1-4-47-9"
       style="fill:#faf7f4;fill-opacity:1;stroke:#ffc928;stroke-width:0.72125536;stroke-miterlimit:4;stroke-opacity:1;stroke-dasharray:none;display:inline" />
    <path
       inkscape:connector-curvature="0"
       d="m 10.155349,-69.449319 c 0,1.69483 -1.3739329,3.06876 -3.0687544,3.06876 -1.6948216,0 -3.0687547,-1.37393 -3.0687547,-3.06876 0,-1.69482 1.3739331,-3.06874 3.0687547,-3.06874 1.6948215,0 3.0687544,1.37392 3.0687544,3.06874 z"
       id="path6213-6-6-1-1"
       style="fill:#80bf40;fill-opacity:0.15686275;stroke:#0e100d;stroke-width:0.94911122;stroke-miterlimit:4;stroke-opacity:1;stroke-dasharray:none;display:inline" />
  </g>
  <g
     id="g3987"
     transform="translate(-136.44349,2.1282378)">
    <path
       inkscape:connector-curvature="0"
       d="m 260.7107,114.80266 c 0,2.30569 -1.86913,4.17482 -4.17481,4.17482 -2.30569,0 -4.17481,-1.86913 -4.17481,-4.17482 0,-2.30568 1.86913,-4.1748 4.17481,-4.1748 2.30569,0 4.17481,1.86912 4.17481,4.1748 z"
       id="path3786-6-0-1-4-4"
       style="fill:#faf7f4;fill-opacity:1;stroke:#ffc928;stroke-width:0.72125536;stroke-miterlimit:4;stroke-opacity:1;stroke-dasharray:none;display:inline" />
    <path
       inkscape:connector-curvature="0"
       d="m 259.6037,114.80266 c 0,1.69483 -1.37393,3.06875 -3.06875,3.06875 -1.69482,0 -3.06876,-1.37392 -3.06876,-3.06875 0,-1.69482 1.37394,-3.06875 3.06876,-3.06875 1.69482,0 3.06875,1.37393 3.06875,3.06875 z"
       id="path6213-6-6-1-2"
       style="fill:#80bf40;fill-opacity:0.15686275;stroke:#0e100d;stroke-width:0.94911122;stroke-miterlimit:4;stroke-opacity:1;stroke-dasharray:none;display:inline" />
  </g>
  <g
     id="g3983"
     transform="translate(-136.44349,74.750956)">
    <path
       inkscape:connector-curvature="0"
       d="m 260.7107,-69.449319 c 0,2.30569 -1.86913,4.17482 -4.17481,4.17482 -2.30569,0 -4.17481,-1.86913 -4.17481,-4.17482 0,-2.30568 1.86913,-4.1748 4.17481,-4.1748 2.30569,0 4.17481,1.86912 4.17481,4.1748 z"
       id="path3786-6-0-1-4"
       style="fill:#faf7f4;fill-opacity:1;stroke:#ffc928;stroke-width:0.72125536;stroke-miterlimit:4;stroke-opacity:1;stroke-dasharray:none;display:inline" />
    <path
       inkscape:connector-curvature="0"
       d="m 259.6037,-69.449319 c 0,1.69483 -1.37393,3.06876 -3.06875,3.06876 -1.69482,0 -3.06876,-1.37393 -3.06876,-3.06876 0,-1.69482 1.37394,-3.06874 3.06876,-3.06874 1.69482,0 3.06875,1.37392 3.06875,3.06874 z"
       id="path6213-6-6-1-20"
       style="fill:#80bf40;fill-opacity:0.15686275;stroke:#0e100d;stroke-width:0.94911122;stroke-miterlimit:4;stroke-opacity:1;stroke-dasharray:none;display:inline" />
  </g>
  <g
     style="font-size:0px;font-style:normal;font-weight:normal;fill:#000000;fill-opacity:1;stroke:none;font-family:OCRA"
     id="flowRoot4238"
     font-size="0"
     transform="matrix(0.999995,0,0,0.999995,0,26.145296)" />
  <path
     style="fill:#b5d776;fill-opacity:1;stroke:#000000;stroke-width:1.11124313;stroke-miterlimit:4;stroke-opacity:1;display:inline"
     id="rect3835"
     d="m 11.185536,32.591788 102.353224,0 0,69.754832 -102.353224,0 0,-69.754832 z"
     inkscape:connector-curvature="0" />
  <path
     style="fill:#fcc460;fill-opacity:1;stroke:#0e100d;stroke-width:0.42642301;stroke-opacity:1;display:inline"
     id="rect6332-1-9"
     d="m 37.3471,121.5343 0,-7.33864 0.01456,0 c 0.132298,-0.97216 1.13365,-1.73104 2.33069,-1.73104 1.19704,0 2.18382,0.75888 2.31612,1.73104 0.0011,0.008 -9.6e-4,0.0168 0,0.0248 0.008,0.0656 0.01456,0.12776 0.01456,0.19504 0,0.0672 -0.0066,0.14168 -0.01456,0.20728 l 0,6.91192 -4.66137,0 z"
     inkscape:connector-curvature="0" />
  <path
     style="fill:#fffdfa;fill-opacity:1;stroke:#0e100d;stroke-width:0.54857397;stroke-miterlimit:4;stroke-opacity:1;stroke-dasharray:none;display:inline"
     id="connector19pin"
     d="m 41.0548,114.8023 c 0,0.75648 -0.613283,1.36976 -1.36981,1.36976 -0.756524,0 -1.36981,-0.61328 -1.36981,-1.36976 0,-0.75656 0.613284,-1.36984 1.36981,-1.36984 0.756523,0 1.36981,0.61328 1.36981,1.36984 z"
     inkscape:connector-curvature="0" />
  <path
     style="fill:#fcc460;fill-opacity:1;stroke:#0e100d;stroke-width:0.42642301;stroke-opacity:1;display:inline"
     id="rect6332-1-9-0"
     d="m 44.5471,121.5343 0,-7.33864 0.01456,0 c 0.132298,-0.97216 1.13365,-1.73104 2.33069,-1.73104 1.19704,0 2.18382,0.75888 2.31612,1.73104 0.0011,0.008 -9.6e-4,0.0168 0,0.0248 0.008,0.0656 0.01456,0.12776 0.01456,0.19504 0,0.0672 -0.0066,0.14168 -0.01456,0.20728 l 0,6.91192 -4.66137,0 z"
     inkscape:connector-curvature="0" />
  <path
     style="fill:#fffdfa;fill-opacity:1;stroke:#0e100d;stroke-width:0.54857397;stroke-miterlimit:4;stroke-opacity:1;stroke-dasharray:none;display:inline"
     id="connector18pin"
     d="m 48.2548,114.8023 c 0,0.75648 -0.613284,1.36976 -1.36981,1.36976 -0.756523,0 -1.36981,-0.61328 -1.36981,-1.36976 0,-0.75656 0.613284,-1.36984 1.36981,-1.36984 0.756523,0 1.36981,0.61328 1.36981,1.36984 z"
     inkscape:connector-curvature="0" />
  <path
     style="fill:#fcc460;fill-opacity:1;stroke:#0e100d;stroke-width:0.42642301;stroke-opacity:1;display:inline"
     id="rect6332-1-9-4"
     d="m 51.7471,121.5343 0,-7.33864 0.01456,0 c 0.132298,-0.97216 1.13365,-1.73104 2.33069,-1.73104 1.19704,0 2.18382,0.75888 2.31612,1.73104 0.0011,0.008 -9.6e-4,0.0168 0,0.0248 0.008,0.0656 0.01456,0.12776 0.01456,0.19504 0,0.0672 -0.0066,0.14168 -0.01456,0.20728 l 0,6.91192 -4.66137,0 z"
     inkscape:connector-curvature="0" />
  <path
     style="fill:#fffdfa;fill-opacity:1;stroke:#0e100d;stroke-width:0.54857397;stroke-miterlimit:4;stroke-opacity:1;stroke-dasharray:none;display:inline"
     id="connector17pin"
     d="m 55.4548,114.8023 c 0,0.75648 -0.613283,1.36976 -1.36981,1.36976 -0.756523,0 -1.36981,-0.61328 -1.36981,-1.36976 0,-0.75656 0.613285,-1.36984 1.36981,-1.36984 0.756523,0 1.36981,0.61328 1.36981,1.36984 z"
     inkscape:connector-curvature="0" />
  <path
     style="fill:#fcc460;fill-opacity:1;stroke:#0e100d;stroke-width:0.42642301;stroke-opacity:1;display:inline"
     id="rect6332-1-9-8"
     d="m 58.9471,121.5343 0,-7.33864 0.01456,0 c 0.132298,-0.97216 1.13365,-1.73104 2.33069,-1.73104 1.19704,0 2.18382,0.75888 2.31612,1.73104 0.0011,0.008 -9.6e-4,0.0168 0,0.0248 0.008,0.0656 0.01456,0.12776 0.01456,0.19504 0,0.0672 -0.0066,0.14168 -0.01456,0.20728 l 0,6.91192 -4.66137,0 z"
     inkscape:connector-curvature="0" />
  <path
     style="fill:#fffdfa;fill-opacity:1;stroke:#0e100d;stroke-width:0.54857397;stroke-miterlimit:4;stroke-opacity:1;stroke-dasharray:none;display:inline"
     id="connector16pin"
     d="m 62.6548,114.8023 c 0,0.75648 -0.613283,1.36976 -1.36981,1.36976 -0.756523,0 -1.36981,-0.61328 -1.36981,-1.36976 0,-0.75656 0.613284,-1.36984 1.36981,-1.36984 0.756524,0 1.36981,0.61328 1.36981,1.36984 z"
     inkscape:connector-curvature="0" />
  <path
     style="fill:#fcc460;fill-opacity:1;stroke:#0e100d;stroke-width:0.42642301;stroke-opacity:1;display:inline"
     id="rect6332-1-9-88"
     d="m 66.1471,121.5343 0,-7.33864 0.01456,0 c 0.132298,-0.97216 1.13365,-1.73104 2.33069,-1.73104 1.19704,0 2.18382,0.75888 2.31612,1.73104 0.0011,0.008 -9.6e-4,0.0168 0,0.0248 0.008,0.0656 0.01456,0.12776 0.01456,0.19504 0,0.0672 -0.0066,0.14168 -0.01456,0.20728 l 0,6.91192 -4.66137,0 z"
     inkscape:connector-curvature="0" />
  <path
     style="fill:#fffdfa;fill-opacity:1;stroke:#0e100d;stroke-width:0.54857397;stroke-miterlimit:4;stroke-opacity:1;stroke-dasharray:none;display:inline"
     id="connector15pin"
     d="m 69.8548,114.8023 c 0,0.75648 -0.613283,1.36976 -1.36981,1.36976 -0.756523,0 -1.36981,-0.61328 -1.36981,-1.36976 0,-0.75656 0.613284,-1.36984 1.36981,-1.36984 0.756523,0 1.36981,0.61328 1.36981,1.36984 z"
     inkscape:connector-curvature="0" />
  <path
     style="fill:#fcc460;fill-opacity:1;stroke:#0e100d;stroke-width:0.42642301;stroke-opacity:1;display:inline"
     id="rect6332-1-9-2"
     d="m 73.3471,121.5343 0,-7.33864 0.01456,0 c 0.132298,-0.97216 1.13365,-1.73104 2.33069,-1.73104 1.19704,0 2.18382,0.75888 2.31612,1.73104 0.0011,0.008 -9.6e-4,0.0168 0,0.0248 0.008,0.0656 0.01456,0.12776 0.01456,0.19504 0,0.0672 -0.0066,0.14168 -0.01456,0.20728 l 0,6.91192 -4.66137,0 z"
     inkscape:connector-curvature="0" />
  <path
     style="fill:#fffdfa;fill-opacity:1;stroke:#0e100d;stroke-width:0.54857397;stroke-miterlimit:4;stroke-opacity:1;stroke-dasharray:none;display:inline"
     id="connector14pin"
     d="m 77.0548,114.8023 c 0,0.75648 -0.613283,1.36976 -1.36981,1.36976 -0.756523,0 -1.36981,-0.61328 -1.36981,-1.36976 0,-0.75656 0.613284,-1.36984 1.36981,-1.36984 0.756524,0 1.36981,0.61328 1.36981,1.36984 z"
     inkscape:connector-curvature="0" />
  <path
     style="fill:#fcc460;fill-opacity:1;stroke:#0e100d;stroke-width:0.42642301;stroke-opacity:1;display:inline"
     id="rect6332-1-9-22"
     d="m 80.5471,121.5343 0,-7.33864 0.01456,0 c 0.132304,-0.97216 1.13365,-1.73104 2.3307,-1.73104 1.19703,0 2.18382,0.75888 2.31611,1.73104 8e-4,0.008 -8e-4,0.0168 0,0.0248 0.008,0.0656 0.01456,0.12776 0.01456,0.19504 0,0.0672 -0.0064,0.14168 -0.01456,0.20728 l 0,6.91192 -4.66137,0 z"
     inkscape:connector-curvature="0" />
  <path
     style="fill:#fffdfa;fill-opacity:1;stroke:#0e100d;stroke-width:0.54857397;stroke-miterlimit:4;stroke-opacity:1;stroke-dasharray:none;display:inline"
     id="connector13pin"
     d="m 84.2548,114.8023 c 0,0.75648 -0.613288,1.36976 -1.36981,1.36976 -0.75652,0 -1.3698,-0.61328 -1.3698,-1.36976 0,-0.75656 0.61328,-1.36984 1.3698,-1.36984 0.75652,0 1.36981,0.61328 1.36981,1.36984 z"
     inkscape:connector-curvature="0" />
  <path
     style="fill:#fcc460;fill-opacity:1;stroke:#0e100d;stroke-width:0.42642301;stroke-opacity:1;display:inline"
     id="rect6332-1-9-48"
     d="m 87.7471,121.5343 0,-7.33864 0.01456,0 c 0.132288,-0.97216 1.13365,-1.73104 2.33068,-1.73104 1.19704,0 2.18383,0.75888 2.31613,1.73104 8e-4,0.008 -8e-4,0.0168 0,0.0248 0.008,0.0656 0.01456,0.12776 0.01456,0.19504 0,0.0672 -0.0064,0.14168 -0.01456,0.20728 l 0,6.91192 -4.66138,0 z"
     inkscape:connector-curvature="0" />
  <path
     style="fill:#fffdfa;fill-opacity:1;stroke:#0e100d;stroke-width:0.54857397;stroke-miterlimit:4;stroke-opacity:1;stroke-dasharray:none;display:inline"
     id="connector12pin"
     d="m 91.4548,114.8023 c 0,0.75648 -0.61328,1.36976 -1.36981,1.36976 -0.75652,0 -1.36981,-0.61328 -1.36981,-1.36976 0,-0.75656 0.613288,-1.36984 1.36981,-1.36984 0.756528,0 1.36981,0.61328 1.36981,1.36984 z"
     inkscape:connector-curvature="0" />
  <rect
     width="4"
     x="131.60001"
     y="22.664276"
     height="4"
     id="rect214"
     style="fill:none" />
  <rect
     width="4"
     x="131.60001"
     y="22.664276"
     height="4"
     id="rect216"
     style="fill:none" />
  <text
     xml:space="preserve"
     style="font-size:4.7999959px;font-style:normal;font-variant:normal;font-weight:normal;font-stretch:normal;line-height:125%;letter-spacing:0px;word-spacing:0px;fill:#ffffff;fill-opacity:1;stroke:none;font-family:OCRA;-inkscape-font-specification:OCRA"
     x="27.021225"
     y="117.47543"
     id="text3785"
     sodipodi:linespacing="125%"><tspan
       sodipodi:role="line"
       id="tspan3787"
       x="27.021225"
       y="117.47543">1</tspan></text>
  <text
     xml:space="preserve"
     style="font-size:4.7999959px;font-style:normal;font-variant:normal;font-weight:normal;font-stretch:normal;line-height:125%;letter-spacing:0px;word-spacing:0px;fill:#ffffff;fill-opacity:1;stroke:none;font-family:OCRA;-inkscape-font-specification:OCRA"
     x="95.711929"
     y="117.47543"
     id="text3785-2"
     sodipodi:linespacing="125%"><tspan
       sodipodi:role="line"
       id="tspan3787-1"
       x="95.711929"
       y="117.47543">8</tspan></text>
</svg>
